<svg id="Layer_1" data-name="Layer 1" xmlns="http://www.w3.org/2000/svg" viewBox="0 0 226.08 60.52"><defs><style>.cls-1{fill:#000;}.cls-2,.cls-3{fill:#fff;stroke:#fff;stroke-miterlimit:10;}.cls-2{stroke-width:4px;}</style></defs><path class="cls-1" d="M87.54,61.69A13.14,13.14,0,0,1,82,60.58a8.6,8.6,0,0,1-3.78-3.26,9.63,9.63,0,0,1-1.36-5.25v-1h4.23v1a5.41,5.41,0,0,0,1.76,4.4,7.15,7.15,0,0,0,4.69,1.46A6.86,6.86,0,0,0,92,56.68a4,4,0,0,0,1.5-3.22,3.21,3.21,0,0,0-.71-2.14,4.94,4.94,0,0,0-2-1.32,28,28,0,0,0-3.13-.94l-1.46-.35a23.2,23.2,0,0,1-4.61-1.56,7.45,7.45,0,0,1-3-2.48,6.83,6.83,0,0,1-1.07-4,7.14,7.14,0,0,1,1.21-4.19A7.79,7.79,0,0,1,82,33.83a12.2,12.2,0,0,1,5-.95,12.84,12.84,0,0,1,5.16,1,8,8,0,0,1,3.58,2.93,8.43,8.43,0,0,1,1.31,4.86v1.43H92.89V41.66a5.16,5.16,0,0,0-.74-2.89,4.26,4.26,0,0,0-2-1.62,8.4,8.4,0,0,0-3.05-.51,6.48,6.48,0,0,0-3.94,1,3.41,3.41,0,0,0-1.41,2.91,3.33,3.33,0,0,0,.62,2.07A4.37,4.37,0,0,0,84.14,44a16.52,16.52,0,0,0,3,.91l1.46.36a23.69,23.69,0,0,1,4.75,1.52,8.28,8.28,0,0,1,3.25,2.51,6.65,6.65,0,0,1,1.18,4.08,7.63,7.63,0,0,1-1.24,4.35A8.25,8.25,0,0,1,93,60.64,12.91,12.91,0,0,1,87.54,61.69Z" transform="translate(0 -27.93)"/><path class="cls-1" d="M108.4,61.69a9.38,9.38,0,0,1-3.74-.71,6,6,0,0,1-2.61-2.1,5.67,5.67,0,0,1-1-3.36,5.51,5.51,0,0,1,1-3.35,5.92,5.92,0,0,1,2.65-2,10.37,10.37,0,0,1,3.82-.67h5.94V48.23a3.73,3.73,0,0,0-1-2.73,4.35,4.35,0,0,0-3.17-1,4.67,4.67,0,0,0-3.21,1A4.81,4.81,0,0,0,105.59,48l-3.8-1.23a8.44,8.44,0,0,1,1.52-2.87,7.57,7.57,0,0,1,2.79-2.08,10.09,10.09,0,0,1,4.2-.79,8.69,8.69,0,0,1,6,1.94,7,7,0,0,1,2.17,5.5v8c0,.79.37,1.18,1.11,1.18h1.66v3.41h-3a3.42,3.42,0,0,1-2.26-.72,2.36,2.36,0,0,1-.87-1.93v-.12h-.59a10.86,10.86,0,0,1-.95,1.38,5.3,5.3,0,0,1-1.86,1.37A7.8,7.8,0,0,1,108.4,61.69Zm.59-3.36a5.55,5.55,0,0,0,4-1.41,5,5,0,0,0,1.51-3.86v-.39h-5.7a4.49,4.49,0,0,0-2.62.69,2.32,2.32,0,0,0-1,2,2.58,2.58,0,0,0,1,2.14A4.57,4.57,0,0,0,109,58.33Z" transform="translate(0 -27.93)"/><path class="cls-1" d="M133,61.69A10.79,10.79,0,0,1,126.84,60a7.16,7.16,0,0,1-3-5l3.8-.91a5.9,5.9,0,0,0,1.06,2.57A4.06,4.06,0,0,0,130.58,58a7.48,7.48,0,0,0,2.44.4,5,5,0,0,0,3-.76,2.28,2.28,0,0,0,1.05-1.94,1.86,1.86,0,0,0-1-1.74,10,10,0,0,0-2.93-.91l-1.35-.23a17.47,17.47,0,0,1-3.6-1,6.31,6.31,0,0,1-2.57-1.86,4.71,4.71,0,0,1-1-3,5,5,0,0,1,2.06-4.3,9,9,0,0,1,5.46-1.52,9.18,9.18,0,0,1,5.4,1.48,6.75,6.75,0,0,1,2.75,4l-3.8,1.07a3.67,3.67,0,0,0-1.5-2.51,5.21,5.21,0,0,0-2.85-.74,4.75,4.75,0,0,0-2.61.62,1.92,1.92,0,0,0-1,1.72,1.88,1.88,0,0,0,.93,1.74,7.23,7.23,0,0,0,2.51.83l1.38.24a22.4,22.4,0,0,1,3.84,1A6.36,6.36,0,0,1,140,52.35a4.69,4.69,0,0,1,1,3.17,5.35,5.35,0,0,1-2.17,4.55A9.63,9.63,0,0,1,133,61.69Z" transform="translate(0 -27.93)"/><path class="cls-1" d="M145.8,61.14V33.43h4.08v11h.63a6.12,6.12,0,0,1,1.13-1.46,5.79,5.79,0,0,1,1.94-1.17,8.89,8.89,0,0,1,3.07-.45,7.76,7.76,0,0,1,3.94,1,7.13,7.13,0,0,1,2.71,2.79,8.85,8.85,0,0,1,1,4.33V61.14h-4.08V49.74A4.92,4.92,0,0,0,158.94,46a4.8,4.8,0,0,0-3.48-1.21,5.24,5.24,0,0,0-4.06,1.66,6.94,6.94,0,0,0-1.52,4.83v9.86Z" transform="translate(0 -27.93)"/><path class="cls-1" d="M172.2,39a2.81,2.81,0,0,1-2-.77,2.87,2.87,0,0,1,0-4,3,3,0,0,1,4,0,2.93,2.93,0,0,1,0,4A2.79,2.79,0,0,1,172.2,39Zm-2.06,22.17V41.62h4.08V61.14Z" transform="translate(0 -27.93)"/><path class="cls-1" d="M180.28,61.14V41.62h4v2.3h.64a5,5,0,0,1,1.78-1.82,6,6,0,0,1,3.32-.79,6.12,6.12,0,0,1,3.5.89,5.67,5.67,0,0,1,2,2.27h.64a6.11,6.11,0,0,1,2-2.25,6.22,6.22,0,0,1,3.66-.91,7,7,0,0,1,3.36.77,5.69,5.69,0,0,1,2.34,2.3,7.48,7.48,0,0,1,.87,3.77v13h-4.08V48.47a3.38,3.38,0,0,0-3.72-3.72,4,4,0,0,0-3,1.23,5,5,0,0,0-1.15,3.52V61.14h-4.07V48.47a3.75,3.75,0,0,0-1-2.75,3.71,3.71,0,0,0-2.75-1A4,4,0,0,0,185.5,46a4.94,4.94,0,0,0-1.15,3.52V61.14Z" transform="translate(0 -27.93)"/><path class="cls-1" d="M216.25,39a2.81,2.81,0,0,1-2-.77,2.87,2.87,0,0,1,0-4,3,3,0,0,1,4,0,2.93,2.93,0,0,1,0,4A2.79,2.79,0,0,1,216.25,39Zm-2.06,22.17V41.62h4.08V61.14Z" transform="translate(0 -27.93)"/><path class="cls-1" d="M82.16,84.3A7.37,7.37,0,0,1,79,83.68a4.88,4.88,0,0,1-2.12-1.84,5.34,5.34,0,0,1-.77-3v-.56h2.38v.56a3,3,0,0,0,1,2.47,4,4,0,0,0,2.64.83,3.92,3.92,0,0,0,2.52-.7,2.28,2.28,0,0,0,.85-1.82,1.81,1.81,0,0,0-.4-1.2A2.84,2.84,0,0,0,84,77.72a15.31,15.31,0,0,0-1.76-.52L81.4,77a13.27,13.27,0,0,1-2.59-.88,4.27,4.27,0,0,1-1.71-1.4,3.8,3.8,0,0,1-.6-2.22,4.11,4.11,0,0,1,.68-2.37,4.46,4.46,0,0,1,1.89-1.51,6.82,6.82,0,0,1,2.82-.54,7.23,7.23,0,0,1,2.91.56,4.52,4.52,0,0,1,2,1.65A4.8,4.8,0,0,1,87.55,73v.8H85.17V73a2.9,2.9,0,0,0-.41-1.62,2.38,2.38,0,0,0-1.15-.92,4.73,4.73,0,0,0-1.72-.29,3.65,3.65,0,0,0-2.21.59,1.93,1.93,0,0,0-.79,1.64,1.89,1.89,0,0,0,.34,1.17,2.56,2.56,0,0,0,1,.75,9.58,9.58,0,0,0,1.67.51l.82.2a13.3,13.3,0,0,1,2.67.86,4.54,4.54,0,0,1,1.83,1.41,3.69,3.69,0,0,1,.67,2.3,4.3,4.3,0,0,1-.7,2.45,4.66,4.66,0,0,1-2,1.63A7.19,7.19,0,0,1,82.16,84.3Z" transform="translate(0 -27.93)"/><path class="cls-1" d="M93.9,84.3a5.18,5.18,0,0,1-2.1-.4,3.31,3.31,0,0,1-1.47-1.18,3.17,3.17,0,0,1-.55-1.89A3,3,0,0,1,90.33,79a3.28,3.28,0,0,1,1.49-1.13A5.8,5.8,0,0,1,94,77.44h3.34v-.71a2.07,2.07,0,0,0-.58-1.54A2.44,2.44,0,0,0,95,74.61a2.43,2.43,0,0,0-2.63,2l-2.14-.69A4.68,4.68,0,0,1,91,74.31a4.31,4.31,0,0,1,1.57-1.17A5.78,5.78,0,0,1,95,72.7a4.88,4.88,0,0,1,3.37,1.09,4,4,0,0,1,1.22,3.1v4.52c0,.44.21.67.63.67h.93V84H99.41a1.91,1.91,0,0,1-1.27-.4,1.33,1.33,0,0,1-.49-1.09v-.07h-.34a5.15,5.15,0,0,1-.53.78,2.81,2.81,0,0,1-1,.77A4.29,4.29,0,0,1,93.9,84.3Zm.34-1.89a3.09,3.09,0,0,0,2.22-.79,2.81,2.81,0,0,0,.85-2.17v-.23H94.1a2.51,2.51,0,0,0-1.47.39,1.32,1.32,0,0,0-.55,1.15,1.43,1.43,0,0,0,.57,1.2A2.55,2.55,0,0,0,94.24,82.41Z" transform="translate(0 -27.93)"/><path class="cls-1" d="M107.76,84.3a6.12,6.12,0,0,1-3.48-.93,4.05,4.05,0,0,1-1.69-2.83l2.14-.51a3.3,3.3,0,0,0,.6,1.44,2.3,2.3,0,0,0,1.06.76,4.06,4.06,0,0,0,1.37.23,2.85,2.85,0,0,0,1.68-.43,1.26,1.26,0,0,0,.59-1.09,1,1,0,0,0-.55-1,5.56,5.56,0,0,0-1.65-.51l-.76-.14a9.27,9.27,0,0,1-2-.58,3.59,3.59,0,0,1-1.45-1,2.71,2.71,0,0,1-.53-1.72,2.85,2.85,0,0,1,1.16-2.42,5,5,0,0,1,3.07-.85,5.22,5.22,0,0,1,3,.83,3.8,3.8,0,0,1,1.55,2.26l-2.14.61A2.06,2.06,0,0,0,108.9,75a3,3,0,0,0-1.61-.41,2.71,2.71,0,0,0-1.47.34,1.11,1.11,0,0,0-.53,1,1,1,0,0,0,.52,1,4.07,4.07,0,0,0,1.42.47l.77.13a13,13,0,0,1,2.17.56,3.52,3.52,0,0,1,1.54,1,2.64,2.64,0,0,1,.57,1.78,3,3,0,0,1-1.22,2.56A5.4,5.4,0,0,1,107.76,84.3Z" transform="translate(0 -27.93)"/><path class="cls-1" d="M115,84V68.4h2.29v6.17h.36a3,3,0,0,1,1.72-1.48,5,5,0,0,1,1.73-.26,4.41,4.41,0,0,1,2.22.56A4,4,0,0,1,124.8,75a5,5,0,0,1,.56,2.44V84h-2.29V77.58a2.78,2.78,0,0,0-.72-2.11,2.73,2.73,0,0,0-2-.68,2.92,2.92,0,0,0-2.28.94,3.89,3.89,0,0,0-.86,2.72V84Z" transform="translate(0 -27.93)"/><path class="cls-1" d="M134.34,84V73h2.25V74.3h.35a2.89,2.89,0,0,1,1-1,3.38,3.38,0,0,1,1.87-.45,3.53,3.53,0,0,1,2,.5,3.31,3.31,0,0,1,1.13,1.28h.35a3.43,3.43,0,0,1,1.1-1.27,3.56,3.56,0,0,1,2.06-.51,4.12,4.12,0,0,1,1.9.43,3.21,3.21,0,0,1,1.31,1.3,4.18,4.18,0,0,1,.49,2.12V84h-2.29V76.86a1.9,1.9,0,0,0-2.1-2.09,2.23,2.23,0,0,0-1.71.69,2.79,2.79,0,0,0-.65,2V84h-2.29V76.86a1.9,1.9,0,0,0-2.1-2.09,2.23,2.23,0,0,0-1.71.69,2.79,2.79,0,0,0-.65,2V84Z" transform="translate(0 -27.93)"/><path class="cls-1" d="M156.84,84.3a5.22,5.22,0,0,1-2.11-.4,3.42,3.42,0,0,1-1.47-1.18,3.24,3.24,0,0,1-.54-1.89,3.1,3.1,0,0,1,.54-1.88,3.37,3.37,0,0,1,1.5-1.13,5.77,5.77,0,0,1,2.15-.38h3.34v-.71a2.11,2.11,0,0,0-.58-1.54,2.46,2.46,0,0,0-1.78-.58,2.41,2.41,0,0,0-2.63,2l-2.14-.69a4.52,4.52,0,0,1,.86-1.62,4.23,4.23,0,0,1,1.57-1.17,5.78,5.78,0,0,1,2.36-.44,4.85,4.85,0,0,1,3.36,1.09,3.93,3.93,0,0,1,1.23,3.1v4.52c0,.44.21.67.62.67h.94V84h-1.72a1.93,1.93,0,0,1-1.27-.4,1.36,1.36,0,0,1-.49-1.09v-.07h-.33a4.62,4.62,0,0,1-.54.78,2.69,2.69,0,0,1-1,.77A4.29,4.29,0,0,1,156.84,84.3Zm.33-1.89a3.12,3.12,0,0,0,2.23-.79,2.81,2.81,0,0,0,.85-2.17v-.23H157a2.51,2.51,0,0,0-1.47.39,1.33,1.33,0,0,0-.56,1.15,1.43,1.43,0,0,0,.58,1.2A2.51,2.51,0,0,0,157.17,82.41Z" transform="translate(0 -27.93)"/><path class="cls-1" d="M166.29,84V73h2.25v1.65h.35A3.32,3.32,0,0,1,170,73.41a4,4,0,0,1,2.38-.58,4.41,4.41,0,0,1,2.22.56A4,4,0,0,1,176.13,75a5,5,0,0,1,.56,2.44V84h-2.3V77.58a2.78,2.78,0,0,0-.71-2.11,2.73,2.73,0,0,0-2-.68,2.92,2.92,0,0,0-2.28.94,3.89,3.89,0,0,0-.86,2.72V84Z" transform="translate(0 -27.93)"/><path class="cls-1" d="M183.39,84.3a5.21,5.21,0,0,1-2.1-.4,3.31,3.31,0,0,1-1.47-1.18,3.24,3.24,0,0,1-.55-1.89,3.1,3.1,0,0,1,.55-1.88,3.28,3.28,0,0,1,1.49-1.13,5.8,5.8,0,0,1,2.15-.38h3.34v-.71a2.07,2.07,0,0,0-.58-1.54,2.44,2.44,0,0,0-1.78-.58,2.6,2.6,0,0,0-1.8.56,2.67,2.67,0,0,0-.83,1.45l-2.14-.69a4.68,4.68,0,0,1,.86-1.62,4.4,4.4,0,0,1,1.57-1.17,5.81,5.81,0,0,1,2.36-.44,4.88,4.88,0,0,1,3.37,1.09,4,4,0,0,1,1.22,3.1v4.52c0,.44.21.67.63.67h.93V84H188.9a1.91,1.91,0,0,1-1.27-.4,1.33,1.33,0,0,1-.49-1.09v-.07h-.34a4.5,4.5,0,0,1-.53.78,2.81,2.81,0,0,1-1.05.77A4.29,4.29,0,0,1,183.39,84.3Zm.34-1.89a3.14,3.14,0,0,0,2.23-.79,2.84,2.84,0,0,0,.84-2.17v-.23h-3.2a2.51,2.51,0,0,0-1.47.39,1.3,1.3,0,0,0-.56,1.15,1.41,1.41,0,0,0,.58,1.2A2.5,2.5,0,0,0,183.73,82.41Z" transform="translate(0 -27.93)"/><path class="cls-1" d="M192,78.56v-.34a5.84,5.84,0,0,1,.7-3,5,5,0,0,1,4.4-2.56,3.94,3.94,0,0,1,3.72,1.89h.36V73h2.23V86.24a2.18,2.18,0,0,1-.6,1.61,2.15,2.15,0,0,1-1.61.6h-7.4v-2h6.69c.43,0,.64-.22.64-.67V82.28h-.35a4.84,4.84,0,0,1-.69.82,3.49,3.49,0,0,1-1.17.69,5.29,5.29,0,0,1-1.82.27,5.1,5.1,0,0,1-2.55-.66,4.83,4.83,0,0,1-1.86-1.89A6,6,0,0,1,192,78.56Zm5.72,3.49a3.4,3.4,0,0,0,2.47-.94,3.52,3.52,0,0,0,1-2.62v-.2a3.51,3.51,0,0,0-1-2.64,3.72,3.72,0,0,0-4.92,0,3.51,3.51,0,0,0-1,2.64v.2a3.52,3.52,0,0,0,1,2.62A3.36,3.36,0,0,0,197.76,82.05Z" transform="translate(0 -27.93)"/><path class="cls-1" d="M211.87,84.3a5.82,5.82,0,0,1-2.92-.7,5,5,0,0,1-1.95-2,6.06,6.06,0,0,1-.7-3v-.27a6.24,6.24,0,0,1,.69-3,4.91,4.91,0,0,1,1.93-2,5.64,5.64,0,0,1,2.86-.7,5.33,5.33,0,0,1,2.77.7,4.85,4.85,0,0,1,1.86,1.95,6,6,0,0,1,.67,2.92v.87h-8.44a3.11,3.11,0,0,0,1,2.3,3.25,3.25,0,0,0,2.3.86,2.86,2.86,0,0,0,2-.58,4,4,0,0,0,1-1.34l1.9,1a6.74,6.74,0,0,1-.9,1.32,4.92,4.92,0,0,1-1.55,1.16A5.64,5.64,0,0,1,211.87,84.3Zm-3.21-6.92h6.08a2.72,2.72,0,0,0-.89-1.95,3.06,3.06,0,0,0-2.09-.71,3.09,3.09,0,0,0-2.11.71A3,3,0,0,0,208.66,77.38Z" transform="translate(0 -27.93)"/><path class="cls-1" d="M219.84,84V73h2.25V74.3h.36a1.84,1.84,0,0,1,.86-1,3,3,0,0,1,1.46-.33h1.31V75h-1.4a2.7,2.7,0,0,0-1.83.61,2.36,2.36,0,0,0-.71,1.88V84Z" transform="translate(0 -27.93)"/><rect class="cls-1" x="1.74" width="60.19" height="60.19" rx="12"/><line class="cls-2" y1="38.18" x2="64.99" y2="38.18"/><rect class="cls-3" x="36.08" y="28.23" width="16.49" height="9.95" rx="1.42"/></svg>